HIERARCHY
ROOT Hips
{
 OFFSET 0.000000 0.000000 0.000000
 CHANNELS 6 Xposition Yposition Zposition Yrotation Xrotation Zrotation
 JOINT Chest
 {
  OFFSET 0.000000 9.585900 0.002600
  CHANNELS 3 Yrotation Xrotation Zrotation
  JOINT Chest2
  {
   OFFSET 0.000000 9.601200 -0.005300
   CHANNELS 3 Yrotation Xrotation Zrotation
   JOINT Chest3
   {
    OFFSET 0.000000 9.561800 0.000000
    CHANNELS 3 Yrotation Xrotation Zrotation
    JOINT Chest4
    {
     OFFSET 0.000000 9.552100 0.000000
     CHANNELS 3 Yrotation Xrotation Zrotation
     JOINT Neck
     {
      OFFSET 0.000000 14.453000 0.000000
      CHANNELS 3 Yrotation Xrotation Zrotation
      JOINT Head
      {
       OFFSET 0.000000 8.936500 -0.011300
       CHANNELS 3 Yrotation Xrotation Zrotation
       End Site
       {
        OFFSET 0.000000 17.073600 -0.006000
       }
      }
     }
     JOINT RightCollar
     {
      OFFSET -2.921100 9.558500 0.000000
      CHANNELS 3 Yrotation Xrotation Zrotation
      JOINT RightShoulder
      {
       OFFSET -13.519700 0.000000 0.000000
       CHANNELS 3 Yrotation Xrotation Zrotation
       JOINT RightElbow
       {
        OFFSET 0.000000 -29.696600 0.000000
        CHANNELS 3 Yrotation Xrotation Zrotation
        JOINT RightWrist
        {
         OFFSET 0.000000 -24.004700 0.000000
         CHANNELS 3 Yrotation Xrotation Zrotation
         End Site
         {
          OFFSET 0.000000 -17.728500 0.000000
         }
        }
       }
      }
     }
     JOINT LeftCollar
     {
      OFFSET 2.921100 9.558500 0.000000
      CHANNELS 3 Yrotation Xrotation Zrotation
      JOINT LeftShoulder
      {
       OFFSET 13.519700 0.000000 0.000000
       CHANNELS 3 Yrotation Xrotation Zrotation
       JOINT LeftElbow
       {
        OFFSET 0.000000 -29.696600 0.000000
        CHANNELS 3 Yrotation Xrotation Zrotation
        JOINT LeftWrist
        {
         OFFSET 0.000000 -24.004700 0.000000
         CHANNELS 3 Yrotation Xrotation Zrotation
         End Site
         {
          OFFSET 0.000000 -17.728500 0.000000
         }
        }
       }
      }
     }
    }
   }
  }
 }
 JOINT RightHip
 {
  OFFSET -7.771700 -0.012900 -0.001300
  CHANNELS 3 Yrotation Xrotation Zrotation
  JOINT RightKnee
  {
   OFFSET 0.000000 -40.869800 0.001200
   CHANNELS 3 Yrotation Xrotation Zrotation
   JOINT RightAnkle
   {
    OFFSET 0.000000 -39.717900 0.002100
    CHANNELS 3 Yrotation Xrotation Zrotation
    JOINT RightToe
    {
     OFFSET 0.000000 -4.965400 11.033500
     CHANNELS 3 Yrotation Xrotation Zrotation
     End Site
     {
      OFFSET 0.000000 -1.423100 5.872300
     }
    }
   }
  }
 }
 JOINT LeftHip
 {
  OFFSET 7.771700 -0.012900 -0.001300
  CHANNELS 3 Yrotation Xrotation Zrotation
  JOINT LeftKnee
  {
   OFFSET 0.000000 -40.869800 0.001200
   CHANNELS 3 Yrotation Xrotation Zrotation
   JOINT LeftAnkle
   {
    OFFSET 0.000000 -39.717900 0.002100
    CHANNELS 3 Yrotation Xrotation Zrotation
    JOINT LeftToe
    {
     OFFSET 0.000000 -4.965400 11.033500
     CHANNELS 3 Yrotation Xrotation Zrotation
     End Site
     {
      OFFSET 0.000000 -1.423100 5.872300
     }
    }
   }
  }
 }
}
MOTION
Frames: 15
Frame Time: 0.008333
-84.121716 61.987658 18.007266 172.710354 -48.496040 -1.479511 4.463989 26.445227 1.362812 0.672295 4.442309 0.203797 1.087275 7.052994 0.326143 3.567836 21.498407 1.471702 -0.585037 14.589723 -0.396186 -0.949307 -8.713400 -0.564805 5.427625 3.476315 4.329048 -4.464154 -6.850710 -14.207078 -107.432419 -54.922342 145.375988 -1.107588 -1.562147 -5.137805 -7.659564 1.919160 0.143425 2.019240 -5.800830 15.114745 124.353900 -64.460429 -153.032976 7.878798 -4.403602 2.325196 2.632517 -18.750754 -2.377407 -0.570262 60.069202 -3.351235 3.521489 -4.525469 10.579942 0.041009 -0.148432 0.015757 -1.360506 -15.609491 8.435065 22.272934 77.356765 23.013136 -0.150320 -11.842322 -3.246869 0.315698 0.697641 0.136998
-84.118657 61.990060 18.006623 172.687273 -48.514290 -1.483090 4.477019 26.460139 1.402469 0.674871 4.442956 0.196196 1.086142 7.055243 0.327893 3.564340 21.507214 1.500049 -0.581335 14.556794 -0.448676 -0.920537 -8.763348 -0.621222 5.433566 3.472639 4.289660 -4.476307 -6.845583 -14.204187 -107.427656 -54.921447 145.354503 -1.107209 -1.569578 -5.142086 -7.672645 1.907380 0.115668 2.029991 -5.793894 15.113707 124.307979 -64.475258 -152.985414 7.886435 -4.418130 2.319560 2.637335 -18.730841 -2.351302 -0.566608 60.062264 -3.349137 3.520792 -4.519817 10.575176 0.041685 -0.151853 0.017782 -1.354898 -15.586103 8.453446 22.265217 77.352304 23.006785 -0.126476 -11.833036 -3.246728 0.294620 0.689974 0.128586
-84.123943 61.989489 18.007041 172.694771 -48.508945 -1.458585 4.453971 26.456542 1.370455 0.672514 4.442467 0.199730 1.078398 7.054866 0.340362 3.562217 21.510615 1.494529 -0.575935 14.543357 -0.468962 -0.886082 -8.828573 -0.674769 5.439259 3.474347 4.273604 -4.501529 -6.837542 -14.181896 -107.405123 -54.917238 145.314354 -1.093145 -1.571630 -5.124579 -7.681771 1.904174 0.112547 2.035087 -5.783773 15.110287 124.301539 -64.473057 -152.968521 7.893825 -4.410688 2.312404 2.639169 -18.738876 -2.385888 -0.556092 60.072502 -3.344720 3.520602 -4.528049 10.575816 0.040967 -0.150623 0.020222 -1.356536 -15.586748 8.418968 22.272331 77.341380 23.014486 -0.148368 -11.845534 -3.262605 0.321038 0.704540 0.144351
-84.123794 61.990597 18.006508 172.684897 -48.516747 -1.450211 4.450809 26.459880 1.377903 0.675765 4.445456 0.194147 1.071249 7.054642 0.347154 3.565013 21.513529 1.484165 -0.570510 14.529381 -0.475691 -0.853277 -8.893966 -0.721452 5.447734 3.477694 4.276430 -4.546608 -6.825296 -14.143435 -107.406818 -54.938812 145.342078 -1.091278 -1.575355 -5.134015 -7.686591 1.902228 0.113061 2.029805 -5.777320 15.113509 124.301505 -64.467892 -152.954986 7.897713 -4.403020 2.307587 2.644654 -18.731608 -2.385285 -0.555546 60.073843 -3.345573 3.519729 -4.527509 10.572790 0.040568 -0.153377 0.021951 -1.354352 -15.574398 8.417050 22.288106 77.336297 23.028538 -0.150913 -11.849790 -3.264187 0.319576 0.707539 0.142522
-84.123050 61.991229 18.006100 172.675315 -48.521383 -1.443265 4.433345 26.458215 1.387820 0.685892 4.448332 0.186604 1.067342 7.057991 0.345040 3.562109 21.511614 1.490507 -0.559676 14.502772 -0.498535 -0.823032 -8.944167 -0.763442 5.448678 3.488981 4.260490 -4.556196 -6.825601 -14.131438 -107.401923 -54.938417 145.338060 -1.087308 -1.571800 -5.137771 -7.685196 1.901147 0.094794 2.022608 -5.772497 15.123331 124.275905 -64.463929 -152.916178 7.893850 -4.410291 2.306457 2.649329 -18.727213 -2.380965 -0.559361 60.075052 -3.351898 3.513805 -4.529664 10.569891 0.044887 -0.154121 0.023434 -1.350172 -15.567550 8.417216 22.295397 77.334170 23.035041 -0.144632 -11.850018 -3.272142 0.315837 0.704421 0.145864
-84.118051 61.993223 18.004741 172.651965 -48.537681 -1.448098 4.454510 26.471119 1.415542 0.678125 4.448769 0.190785 1.073070 7.058930 0.340465 3.538636 21.513504 1.508070 -0.532372 14.445624 -0.533533 -0.796129 -8.969977 -0.798728 5.469483 3.491993 4.227696 -4.566497 -6.823628 -14.118725 -107.404352 -54.931274 145.334839 -1.089141 -1.566012 -5.150080 -7.672990 1.889970 0.074276 2.029194 -5.767130 15.114596 124.257073 -64.464992 -152.895141 7.888703 -4.405846 2.301803 2.655603 -18.709611 -2.353536 -0.571349 60.068909 -3.361435 3.523519 -4.524710 10.568806 0.043475 -0.157519 0.020862 -1.342358 -15.549072 8.439095 22.310111 77.333160 23.051891 -0.122571 -11.836255 -3.272069 0.292686 0.690086 0.136232
-84.116005 61.994553 18.003087 172.635573 -48.550285 -1.438085 4.461693 26.481838 1.421247 0.672161 4.447814 0.195346 1.076669 7.060710 0.335389 3.531784 21.511834 1.508318 -0.521278 14.417379 -0.544751 -0.765513 -9.019844 -0.829508 5.473977 3.495436 4.218359 -4.566550 -6.821863 -14.114849 -107.411653 -54.917431 145.327247 -1.096231 -1.562184 -5.164882 -7.680389 1.893332 0.078021 2.043857 -5.768698 15.101114 124.248085 -64.470605 -152.888819 7.872815 -4.400643 2.297883 2.667639 -18.697384 -2.352754 -0.553223 60.070702 -3.340729 3.521504 -4.525253 10.568310 0.036046 -0.159907 0.017628 -1.342949 -15.531936 8.439876 22.344402 77.330905 23.083072 -0.120420 -11.836632 -3.279884 0.291149 0.686242 0.134512
-84.113707 61.994807 18.002082 172.630606 -48.555431 -1.436599 4.456212 26.482311 1.427420 0.670865 4.447603 0.195158 1.074561 7.060468 0.334863 3.535552 21.516451 1.500694 -0.517070 14.402924 -0.548441 -0.735390 -9.084013 -0.856338 5.474669 3.486999 4.208045 -4.583793 -6.811658 -14.091810 -107.418824 -54.914859 145.336307 -1.102017 -1.559394 -5.166978 -7.693526 1.890272 0.084309 2.056961 -5.765398 15.091704 124.252491 -64.472724 -152.892516 7.871675 -4.399025 2.291573 2.670049 -18.693190 -2.350497 -0.566232 60.073036 -3.346846 3.525168 -4.525620 10.561632 0.037731 -0.160624 0.018634 -1.343488 -15.525504 8.442269 22.345213 77.331967 23.086177 -0.117865 -11.836630 -3.283514 0.295400 0.684871 0.132017
-84.111098 61.995197 18.000730 172.626044 -48.562910 -1.435487 4.446698 26.478335 1.439112 0.675325 4.451845 0.188316 1.060437 7.058590 0.341052 3.535613 21.521722 1.487617 -0.505816 14.392599 -0.558811 -0.721580 -9.108004 -0.868179 5.488990 3.486443 4.195044 -4.609388 -6.806393 -14.072738 -107.427501 -54.912656 145.354618 -1.108245 -1.556298 -5.170139 -7.693817 1.893278 0.080176 2.056456 -5.770040 15.085397 124.274191 -64.475870 -152.913243 7.878258 -4.393305 2.301109 2.673860 -18.686945 -2.345018 -0.569224 60.076762 -3.348381 3.520678 -4.524598 10.558759 0.040503 -0.163343 0.019818 -1.344981 -15.516472 8.445815 22.341756 77.334670 23.083214 -0.113835 -11.838354 -3.286439 0.294845 0.684076 0.130919
-84.110177 61.996374 17.998226 172.611133 -48.578088 -1.414917 4.450410 26.492819 1.430912 0.667971 4.448935 0.194013 1.055975 7.060950 0.338270 3.531157 21.522749 1.485515 -0.495973 14.338702 -0.567254 -0.705003 -9.091923 -0.883447 5.505078 3.483166 4.179939 -4.645006 -6.816862 -14.043391 -107.410545 -54.925632 145.360901 -1.112925 -1.547295 -5.168892 -7.698284 1.888661 0.075886 2.073173 -5.765936 15.078342 124.274179 -64.474645 -152.917276 7.879940 -4.391904 2.301433 2.687147 -18.674953 -2.353932 -0.569392 60.084958 -3.349745 3.526691 -4.523717 10.558189 0.035977 -0.169745 0.020430 -1.339978 -15.496446 8.437244 22.343557 77.332809 23.078511 -0.109488 -11.837440 -3.286181 0.292378 0.681513 0.128369
-84.109029 61.996957 17.996205 172.602679 -48.589177 -1.400923 4.438183 26.500466 1.423184 0.658974 4.446548 0.197530 1.065868 7.066696 0.331268 3.517412 21.525164 1.482467 -0.480118 14.312512 -0.578072 -0.678646 -9.144340 -0.902756 5.528004 3.478235 4.164552 -4.665059 -6.822650 -14.029694 -107.404367 -54.926158 145.360022 -1.120906 -1.552809 -5.174120 -7.695908 1.883917 0.075111 2.086999 -5.767455 15.065183 124.269566 -64.476970 -152.916808 7.879552 -4.398785 2.302526 2.693991 -18.666020 -2.360995 -0.572125 60.091758 -3.351901 3.527620 -4.525793 10.556069 0.043209 -0.169635 0.020453 -1.337727 -15.481236 8.430094 22.343825 77.330689 23.075251 -0.109312 -11.840018 -3.280577 0.291403 0.682619 0.121439
-84.108446 61.996744 17.994813 172.601032 -48.594240 -1.389995 4.421467 26.497929 1.415299 0.662279 4.452926 0.193436 1.064496 7.069211 0.330497 3.510580 21.527149 1.479563 -0.471245 14.287340 -0.585577 -0.655946 -9.197363 -0.921436 5.543544 3.473170 4.153795 -4.683472 -6.830315 -14.017782 -107.402045 -54.924832 145.359468 -1.122980 -1.579323 -5.185226 -7.740304 1.855536 0.081186 2.127734 -5.750142 15.048350 124.232850 -64.469831 -152.880708 7.864822 -4.402329 2.305516 2.698182 -18.663353 -2.369664 -0.579117 60.099300 -3.357924 3.523604 -4.528629 10.554287 0.042889 -0.169340 0.020308 -1.345565 -15.473274 8.414568 22.362597 77.326305 23.094376 -0.102360 -11.836967 -3.287223 0.286309 0.681212 0.118993
-84.107560 61.996109 17.993923 172.600856 -48.595881 -1.383924 4.416913 26.498936 1.409323 0.655668 4.454052 0.195667 1.064844 7.070357 0.329063 3.496027 21.533720 1.478894 -0.457894 14.259874 -0.596273 -0.638590 -9.251840 -0.936966 5.563521 3.465859 4.141301 -4.696566 -6.842238 -14.006409 -107.404387 -54.926222 145.363225 -1.126825 -1.580767 -5.183825 -7.750542 1.828774 0.075820 2.148224 -5.738690 15.040092 124.209029 -64.467104 -152.860418 7.858474 -4.406116 2.293705 2.698807 -18.663958 -2.373910 -0.582829 60.105385 -3.362322 3.520033 -4.531261 10.551797 0.038199 -0.168211 0.020208 -1.346612 -15.470770 8.406511 22.356832 77.325185 23.091820 -0.097462 -11.836236 -3.290982 0.285965 0.682353 0.121742
-84.106515 61.995979 17.992718 172.592825 -48.601456 -1.374846 4.410411 26.503444 1.405711 0.658637 4.456766 0.194225 1.067908 7.069676 0.326729 3.494755 21.534539 1.477926 -0.456758 14.249383 -0.597827 -0.624453 -9.310858 -0.948093 5.574090 3.453960 4.135990 -4.712444 -6.848518 -13.993928 -107.408379 -54.929316 145.368699 -1.133249 -1.580016 -5.189790 -7.772792 1.806508 0.078486 2.162075 -5.726639 15.028953 124.198284 -64.467889 -152.849984 7.857379 -4.408262 2.280820 2.702447 -18.660270 -2.375457 -0.581464 60.109871 -3.362823 3.519310 -4.534346 10.550059 0.036156 -0.167163 0.020100 -1.342382 -15.463670 8.400708 22.354404 77.324465 23.094261 -0.094055 -11.835442 -3.296335 0.286379 0.681537 0.123382
-84.106267 61.996306 17.991098 172.582890 -48.610446 -1.361880 4.408570 26.513444 1.400538 0.660944 4.456750 0.192909 1.064500 7.074365 0.326553 3.491048 21.538565 1.473841 -0.450514 14.232374 -0.600504 -0.611532 -9.424477 -0.960799 5.591123 3.429895 4.128309 -4.727318 -6.854183 -13.983957 -107.411309 -54.930078 145.371215 -1.142892 -1.567680 -5.195505 -7.788620 1.771642 0.084010 2.179791 -5.705434 15.018019 124.196648 -64.469598 -152.847388 7.873429 -4.417656 2.250224 2.707922 -18.653309 -2.379303 -0.576377 60.115610 -3.359806 3.512548 -4.537584 10.544633 0.038127 -0.166094 0.023224 -1.339730 -15.449004 8.393267 22.358026 77.319289 23.097160 -0.095508 -11.843304 -3.295592 0.290263 0.689002 0.119417
